<svg width="32" height="32" viewBox="0 0 32 32" fill="none" xmlns="http://www.w3.org/2000/svg">
<path d="M2.39149 7.05725L4.6655 7.05725C4.8733 7.05725 5.07325 6.97492 5.22224 6.82593L6.82973 5.21844C6.97479 5.07338 7.05713 4.87342 7.05713 4.66562L7.05713 2.39162C7.05713 2.18382 6.97479 1.98386 6.82581 1.8388L5.21832 0.231309C5.07325 0.0823226 4.8733 -1.21593e-05 4.6655 -1.21593e-05L2.39149 -1.21593e-05C2.1837 -1.21593e-05 1.98374 0.0823226 1.83868 0.231309L0.231187 1.8388C0.0822006 1.98386 -0.00013423 2.18382 -0.00013423 2.39162L-0.00013423 4.66562C-0.00013423 4.87342 0.0822006 5.07338 0.231187 5.21844L1.83868 6.82593C1.98374 6.97492 2.1837 7.05725 2.39149 7.05725Z" fill="url(#paint0_linear_307_18)"/>
<path d="M2.39149 15.3715H4.6655C4.8733 15.3715 5.07325 15.2892 5.22224 15.1402L6.82973 13.5327C6.97479 13.3876 7.05713 13.1877 7.05713 12.9799L7.05713 10.7059C7.05713 10.4981 6.97479 10.2981 6.82581 10.1531L5.21832 8.54558C5.07325 8.39659 4.8733 8.31426 4.6655 8.31426H2.39149C2.1837 8.31426 1.98374 8.39659 1.83868 8.54558L0.231187 10.1531C0.0822006 10.2981 -0.00013423 10.4981 -0.00013423 10.7059L-0.00013423 12.9799C-0.00013423 13.1877 0.0822006 13.3876 0.231187 13.5327L1.83868 15.1402C1.98374 15.2892 2.1837 15.3715 2.39149 15.3715Z" fill="url(#paint1_linear_307_18)"/>
<path d="M2.39149 23.6857H4.6655C4.8733 23.6857 5.07325 23.6034 5.22224 23.4544L6.82973 21.8469C6.97479 21.7019 7.05713 21.5019 7.05713 21.2941L7.05713 19.0201C7.05713 18.8123 6.97479 18.6123 6.82581 18.4673L5.21832 16.8598C5.07325 16.7108 4.8733 16.6285 4.6655 16.6285H2.39149C2.1837 16.6285 1.98374 16.7108 1.83868 16.8598L0.231187 18.4673C0.0822006 18.6123 -0.00013423 18.8123 -0.00013423 19.0201L-0.00013423 21.2941C-0.00013423 21.5019 0.0822006 21.7019 0.231187 21.8469L1.83868 23.4544C1.98374 23.6034 2.1837 23.6857 2.39149 23.6857Z" fill="url(#paint2_linear_307_18)"/>
<path d="M2.39149 32H4.6655C4.8733 32 5.07325 31.9177 5.22224 31.7687L6.82973 30.1612C6.97479 30.0161 7.05713 29.8162 7.05713 29.6084L7.05713 27.3344C7.05713 27.1266 6.97479 26.9266 6.82581 26.7815L5.21832 25.1741C5.07325 25.0251 4.8733 24.9427 4.6655 24.9427H2.39149C2.1837 24.9427 1.98374 25.0251 1.83868 25.1741L0.231187 26.7815C0.0822006 26.9266 -0.00013423 27.1266 -0.00013423 27.3344L-0.00013423 29.6084C-0.00013423 29.8162 0.0822006 30.0161 0.231187 30.1612L1.83868 31.7687C1.98374 31.9177 2.1837 32 2.39149 32Z" fill="url(#paint3_linear_307_18)"/>
<path d="M10.7059 7.05725L12.98 7.05725C13.1878 7.05725 13.3877 6.97492 13.5367 6.82593L15.1442 5.21844C15.2892 5.07338 15.3716 4.87342 15.3716 4.66562V2.39162C15.3716 2.18382 15.2892 1.98386 15.1403 1.8388L13.5328 0.231309C13.3877 0.0823226 13.1878 -1.21593e-05 12.98 -1.21593e-05L10.7059 -1.21593e-05C10.4981 -1.21593e-05 10.2982 0.0823226 10.1531 0.231309L8.54564 1.8388C8.39665 1.98386 8.31432 2.18382 8.31432 2.39162V4.66562C8.31432 4.87342 8.39665 5.07338 8.54564 5.21844L10.1531 6.82593C10.2982 6.97492 10.4981 7.05725 10.7059 7.05725Z" fill="url(#paint4_linear_307_18)"/>
<path d="M10.7059 15.3715H12.98C13.1878 15.3715 13.3877 15.2892 13.5367 15.1402L15.1442 13.5327C15.2892 13.3876 15.3716 13.1877 15.3716 12.9799V10.7059C15.3716 10.4981 15.2892 10.2981 15.1403 10.1531L13.5328 8.54558C13.3877 8.39659 13.1878 8.31426 12.98 8.31426H10.7059C10.4981 8.31426 10.2982 8.39659 10.1531 8.54558L8.54564 10.1531C8.39665 10.2981 8.31432 10.4981 8.31432 10.7059V12.9799C8.31432 13.1877 8.39665 13.3876 8.54564 13.5327L10.1531 15.1402C10.2982 15.2892 10.4981 15.3715 10.7059 15.3715Z" fill="url(#paint5_linear_307_18)"/>
<path d="M10.7059 23.6857H12.98C13.1878 23.6857 13.3877 23.6034 13.5367 23.4544L15.1442 21.8469C15.2892 21.7019 15.3716 21.5019 15.3716 21.2941V19.0201C15.3716 18.8123 15.2892 18.6123 15.1403 18.4673L13.5328 16.8598C13.3877 16.7108 13.1878 16.6285 12.98 16.6285H10.7059C10.4981 16.6285 10.2982 16.7108 10.1531 16.8598L8.54564 18.4673C8.39665 18.6123 8.31432 18.8123 8.31432 19.0201V21.2941C8.31432 21.5019 8.39665 21.7019 8.54564 21.8469L10.1531 23.4544C10.2982 23.6034 10.4981 23.6857 10.7059 23.6857Z" fill="url(#paint6_linear_307_18)"/>
<path d="M19.0202 7.05725L21.2942 7.05725C21.502 7.05725 21.7019 6.97492 21.8509 6.82593L23.4584 5.21844C23.6035 5.07338 23.6858 4.87342 23.6858 4.66562V2.39162C23.6858 2.18382 23.6035 1.98386 23.4545 1.8388L21.847 0.231309C21.7019 0.0823226 21.502 -1.21593e-05 21.2942 -1.21593e-05L19.0202 -1.21593e-05C18.8124 -1.21593e-05 18.6124 0.0823226 18.4673 0.231309L16.8598 1.8388C16.7109 1.98386 16.6285 2.18382 16.6285 2.39162V4.66562C16.6285 4.87342 16.7109 5.07338 16.8598 5.21844L18.4673 6.82593C18.6124 6.97492 18.8124 7.05725 19.0202 7.05725Z" fill="url(#paint7_linear_307_18)"/>
<path d="M19.0202 15.3715H21.2942C21.502 15.3715 21.7019 15.2892 21.8509 15.1402L23.4584 13.5327C23.6035 13.3876 23.6858 13.1877 23.6858 12.9799V10.7059C23.6858 10.4981 23.6035 10.2981 23.4545 10.1531L21.847 8.54558C21.7019 8.39659 21.502 8.31426 21.2942 8.31426H19.0202C18.8124 8.31426 18.6124 8.39659 18.4673 8.54558L16.8598 10.1531C16.7109 10.2981 16.6285 10.4981 16.6285 10.7059V12.9799C16.6285 13.1877 16.7109 13.3876 16.8598 13.5327L18.4673 15.1402C18.6124 15.2892 18.8124 15.3715 19.0202 15.3715Z" fill="url(#paint8_linear_307_18)"/>
<path d="M27.3344 7.05725L29.6084 7.05725C29.8162 7.05725 30.0161 6.97492 30.1651 6.82593L31.7726 5.21844C31.9177 5.07338 32 4.87342 32 4.66562V2.39162C32 2.18382 31.9177 1.98386 31.7687 1.8388L30.1612 0.231309C30.0161 0.0823226 29.8162 -1.21593e-05 29.6084 -1.21593e-05L27.3344 -1.21593e-05C27.1266 -1.21593e-05 26.9266 0.0823226 26.7815 0.231309L25.1741 1.8388C25.0251 1.98386 24.9427 2.18382 24.9427 2.39162V4.66562C24.9427 4.87342 25.0251 5.07338 25.1741 5.21844L26.7815 6.82593C26.9266 6.97492 27.1266 7.05725 27.3344 7.05725Z" fill="url(#paint9_linear_307_18)"/>
<defs>
<linearGradient id="paint0_linear_307_18" x1="3.5285" y1="7.05725" x2="3.5285" y2="-1.23978e-05" gradientUnits="userSpaceOnUse">
<stop stop-color="#FFD43D"/>
<stop offset="1" stop-color="#D37F00"/>
</linearGradient>
<linearGradient id="paint1_linear_307_18" x1="3.5285" y1="15.3715" x2="3.5285" y2="8.31426" gradientUnits="userSpaceOnUse">
<stop stop-color="#FFD43D"/>
<stop offset="1" stop-color="#D37F00"/>
</linearGradient>
<linearGradient id="paint2_linear_307_18" x1="3.5285" y1="23.6857" x2="3.5285" y2="16.6285" gradientUnits="userSpaceOnUse">
<stop stop-color="#FFD43D"/>
<stop offset="1" stop-color="#D37F00"/>
</linearGradient>
<linearGradient id="paint3_linear_307_18" x1="3.5285" y1="32" x2="3.5285" y2="24.9427" gradientUnits="userSpaceOnUse">
<stop stop-color="#FFD43D"/>
<stop offset="1" stop-color="#D37F00"/>
</linearGradient>
<linearGradient id="paint4_linear_307_18" x1="11.843" y1="7.05725" x2="11.843" y2="-1.23978e-05" gradientUnits="userSpaceOnUse">
<stop stop-color="#FFD43D"/>
<stop offset="1" stop-color="#D37F00"/>
</linearGradient>
<linearGradient id="paint5_linear_307_18" x1="11.843" y1="15.3715" x2="11.843" y2="8.31426" gradientUnits="userSpaceOnUse">
<stop stop-color="#FFD43D"/>
<stop offset="1" stop-color="#D37F00"/>
</linearGradient>
<linearGradient id="paint6_linear_307_18" x1="11.843" y1="23.6857" x2="11.843" y2="16.6285" gradientUnits="userSpaceOnUse">
<stop stop-color="#FFD43D"/>
<stop offset="1" stop-color="#D37F00"/>
</linearGradient>
<linearGradient id="paint7_linear_307_18" x1="20.1572" y1="7.05725" x2="20.1572" y2="-1.23978e-05" gradientUnits="userSpaceOnUse">
<stop stop-color="#FFD43D"/>
<stop offset="1" stop-color="#D37F00"/>
</linearGradient>
<linearGradient id="paint8_linear_307_18" x1="20.1572" y1="15.3715" x2="20.1572" y2="8.31426" gradientUnits="userSpaceOnUse">
<stop stop-color="#FFD43D"/>
<stop offset="1" stop-color="#D37F00"/>
</linearGradient>
<linearGradient id="paint9_linear_307_18" x1="28.4714" y1="7.05725" x2="28.4714" y2="-1.23978e-05" gradientUnits="userSpaceOnUse">
<stop stop-color="#FFD43D"/>
<stop offset="1" stop-color="#D37F00"/>
</linearGradient>
</defs>
</svg>
