<svg width="6" height="6" viewBox="0 0 6 6" fill="none" xmlns="http://www.w3.org/2000/svg">
<path d="M2.54172 5.0929L4.18277 5.0929C4.33272 5.0929 4.47702 5.03348 4.58454 4.92596L5.74459 3.76591C5.84927 3.66123 5.90869 3.51693 5.90869 3.36697L5.90869 1.72593C5.90869 1.57597 5.84927 1.43167 5.74176 1.32698L4.58171 0.166934C4.47702 0.0594172 4.33272 0 4.18277 0L2.54172 0C2.39176 0 2.24747 0.0594172 2.14278 0.166934L0.98273 1.32698C0.875213 1.43167 0.815796 1.57597 0.815796 1.72593L0.815796 3.36697C0.815796 3.51693 0.875213 3.66123 0.98273 3.76591L2.14278 4.92596C2.24747 5.03348 2.39176 5.0929 2.54172 5.0929Z" fill="url(#paint0_linear_305_8)"/>
<defs>
<linearGradient id="paint0_linear_305_8" x1="3.36224" y1="5.0929" x2="3.36224" y2="0" gradientUnits="userSpaceOnUse">
<stop stop-color="#FFD43D"/>
<stop offset="1" stop-color="#D37F00"/>
</linearGradient>
</defs>
</svg>
