<svg width="58" height="58" viewBox="0 0 58 58" fill="none" xmlns="http://www.w3.org/2000/svg">
<g opacity="0.2">
<path d="M53.6652 45.2087H49.5436C49.1669 45.2087 48.8045 45.358 48.5345 45.628L45.6209 48.5416C45.358 48.8045 45.2087 49.1669 45.2087 49.5436V53.6652C45.2087 54.0418 45.358 54.4043 45.628 54.6672L48.5416 57.5808C48.8045 57.8508 49.1669 58 49.5436 58H53.6652C54.0418 58 54.4043 57.8508 54.6672 57.5808L57.5808 54.6672C57.8508 54.4043 58 54.0418 58 53.6652V49.5436C58 49.1669 57.8508 48.8045 57.5808 48.5416L54.6672 45.628C54.4043 45.358 54.0418 45.2087 53.6652 45.2087Z" fill="url(#paint0_linear_305_21)"/>
<path d="M53.6652 30.1392H49.5436C49.1669 30.1392 48.8045 30.2884 48.5345 30.5584L45.6209 33.472C45.358 33.7349 45.2087 34.0974 45.2087 34.474V38.5956C45.2087 38.9723 45.358 39.3347 45.628 39.5976L48.5416 42.5112C48.8045 42.7812 49.1669 42.9305 49.5436 42.9305H53.6652C54.0418 42.9305 54.4043 42.7812 54.6672 42.5112L57.5808 39.5976C57.8508 39.3347 58 38.9723 58 38.5956V34.474C58 34.0974 57.8508 33.7349 57.5808 33.472L54.6672 30.5584C54.4043 30.2884 54.0418 30.1392 53.6652 30.1392Z" fill="url(#paint1_linear_305_21)"/>
<path d="M53.6652 15.0696L49.5436 15.0696C49.1669 15.0696 48.8045 15.2188 48.5345 15.4889L45.6209 18.4024C45.358 18.6654 45.2087 19.0278 45.2087 19.4044V23.526C45.2087 23.9027 45.358 24.2651 45.628 24.528L48.5416 27.4416C48.8045 27.7116 49.1669 27.8609 49.5436 27.8609H53.6652C54.0418 27.8609 54.4043 27.7116 54.6672 27.4416L57.5808 24.528C57.8508 24.2651 58 23.9027 58 23.526V19.4044C58 19.0278 57.8508 18.6654 57.5808 18.4024L54.6672 15.4889C54.4043 15.2188 54.0418 15.0696 53.6652 15.0696Z" fill="url(#paint2_linear_305_21)"/>
<path d="M53.6652 0L49.5436 0C49.1669 0 48.8045 0.149232 48.5345 0.41927L45.6209 3.33284C45.358 3.59577 45.2087 3.95819 45.2087 4.33483V8.45646C45.2087 8.8331 45.358 9.19552 45.628 9.45845L48.5416 12.372C48.8045 12.6421 49.1669 12.7913 49.5436 12.7913L53.6652 12.7913C54.0418 12.7913 54.4043 12.6421 54.6672 12.372L57.5808 9.45845C57.8508 9.19552 58 8.8331 58 8.45646V4.33483C58 3.95819 57.8508 3.59577 57.5808 3.33284L54.6672 0.41927C54.4043 0.149232 54.0418 0 53.6652 0Z" fill="url(#paint3_linear_305_21)"/>
<path d="M38.5956 45.2087H34.474C34.0974 45.2087 33.7349 45.358 33.4649 45.628L30.5513 48.5416C30.2884 48.8045 30.1392 49.1669 30.1392 49.5436V53.6652C30.1392 54.0418 30.2884 54.4043 30.5584 54.6672L33.472 57.5808C33.7349 57.8508 34.0974 58 34.474 58H38.5956C38.9723 58 39.3347 57.8508 39.5976 57.5808L42.5112 54.6672C42.7812 54.4043 42.9305 54.0418 42.9305 53.6652V49.5436C42.9305 49.1669 42.7812 48.8045 42.5112 48.5416L39.5976 45.628C39.3347 45.358 38.9723 45.2087 38.5956 45.2087Z" fill="url(#paint4_linear_305_21)"/>
<path d="M38.5956 30.1392H34.474C34.0974 30.1392 33.7349 30.2884 33.4649 30.5584L30.5513 33.472C30.2884 33.7349 30.1392 34.0974 30.1392 34.474V38.5956C30.1392 38.9723 30.2884 39.3347 30.5584 39.5976L33.472 42.5112C33.7349 42.7812 34.0974 42.9305 34.474 42.9305H38.5956C38.9723 42.9305 39.3347 42.7812 39.5976 42.5112L42.5112 39.5976C42.7812 39.3347 42.9305 38.9723 42.9305 38.5956V34.474C42.9305 34.0974 42.7812 33.7349 42.5112 33.472L39.5976 30.5584C39.3347 30.2884 38.9723 30.1392 38.5956 30.1392Z" fill="url(#paint5_linear_305_21)"/>
<path d="M38.5956 15.0696L34.474 15.0696C34.0974 15.0696 33.7349 15.2188 33.4649 15.4889L30.5513 18.4024C30.2884 18.6654 30.1392 19.0278 30.1392 19.4044V23.526C30.1392 23.9027 30.2884 24.2651 30.5584 24.528L33.472 27.4416C33.7349 27.7116 34.0974 27.8609 34.474 27.8609H38.5956C38.9723 27.8609 39.3347 27.7116 39.5976 27.4416L42.5112 24.528C42.7812 24.2651 42.9305 23.9027 42.9305 23.526V19.4044C42.9305 19.0278 42.7812 18.6654 42.5112 18.4024L39.5976 15.4889C39.3347 15.2188 38.9723 15.0696 38.5956 15.0696Z" fill="url(#paint6_linear_305_21)"/>
<path d="M23.526 45.2087H19.4044C19.0278 45.2087 18.6654 45.358 18.3953 45.628L15.4817 48.5416C15.2188 48.8045 15.0696 49.1669 15.0696 49.5436L15.0696 53.6652C15.0696 54.0418 15.2188 54.4043 15.4889 54.6672L18.4024 57.5808C18.6654 57.8508 19.0278 58 19.4044 58H23.526C23.9027 58 24.2651 57.8508 24.528 57.5808L27.4416 54.6672C27.7116 54.4043 27.8609 54.0418 27.8609 53.6652V49.5436C27.8609 49.1669 27.7116 48.8045 27.4416 48.5416L24.528 45.628C24.2651 45.358 23.9027 45.2087 23.526 45.2087Z" fill="url(#paint7_linear_305_21)"/>
<path d="M23.526 30.1392H19.4044C19.0278 30.1392 18.6654 30.2884 18.3953 30.5584L15.4817 33.472C15.2188 33.7349 15.0696 34.0974 15.0696 34.474L15.0696 38.5956C15.0696 38.9723 15.2188 39.3347 15.4889 39.5976L18.4024 42.5112C18.6654 42.7812 19.0278 42.9305 19.4044 42.9305H23.526C23.9027 42.9305 24.2651 42.7812 24.528 42.5112L27.4416 39.5976C27.7116 39.3347 27.8609 38.9723 27.8609 38.5956V34.474C27.8609 34.0974 27.7116 33.7349 27.4416 33.472L24.528 30.5584C24.2651 30.2884 23.9027 30.1392 23.526 30.1392Z" fill="url(#paint8_linear_305_21)"/>
<path d="M8.45646 45.2087H4.33483C3.95819 45.2087 3.59577 45.358 3.32574 45.628L0.412164 48.5416C0.149232 48.8045 0 49.1669 0 49.5436L0 53.6652C0 54.0418 0.149232 54.4043 0.41927 54.6672L3.33284 57.5808C3.59577 57.8508 3.95819 58 4.33483 58H8.45646C8.8331 58 9.19552 57.8508 9.45845 57.5808L12.372 54.6672C12.6421 54.4043 12.7913 54.0418 12.7913 53.6652L12.7913 49.5436C12.7913 49.1669 12.6421 48.8045 12.372 48.5416L9.45845 45.628C9.19552 45.358 8.8331 45.2087 8.45646 45.2087Z" fill="url(#paint9_linear_305_21)"/>
</g>
<defs>
<linearGradient id="paint0_linear_305_21" x1="51.6044" y1="45.2087" x2="51.6044" y2="58" gradientUnits="userSpaceOnUse">
<stop stop-color="#FFD43D"/>
<stop offset="1" stop-color="#D37F00"/>
</linearGradient>
<linearGradient id="paint1_linear_305_21" x1="51.6044" y1="30.1392" x2="51.6044" y2="42.9305" gradientUnits="userSpaceOnUse">
<stop stop-color="#FFD43D"/>
<stop offset="1" stop-color="#D37F00"/>
</linearGradient>
<linearGradient id="paint2_linear_305_21" x1="51.6044" y1="15.0696" x2="51.6044" y2="27.8609" gradientUnits="userSpaceOnUse">
<stop stop-color="#FFD43D"/>
<stop offset="1" stop-color="#D37F00"/>
</linearGradient>
<linearGradient id="paint3_linear_305_21" x1="51.6044" y1="0" x2="51.6044" y2="12.7913" gradientUnits="userSpaceOnUse">
<stop stop-color="#FFD43D"/>
<stop offset="1" stop-color="#D37F00"/>
</linearGradient>
<linearGradient id="paint4_linear_305_21" x1="36.5348" y1="45.2087" x2="36.5348" y2="58" gradientUnits="userSpaceOnUse">
<stop stop-color="#FFD43D"/>
<stop offset="1" stop-color="#D37F00"/>
</linearGradient>
<linearGradient id="paint5_linear_305_21" x1="36.5348" y1="30.1392" x2="36.5348" y2="42.9305" gradientUnits="userSpaceOnUse">
<stop stop-color="#FFD43D"/>
<stop offset="1" stop-color="#D37F00"/>
</linearGradient>
<linearGradient id="paint6_linear_305_21" x1="36.5348" y1="15.0696" x2="36.5348" y2="27.8609" gradientUnits="userSpaceOnUse">
<stop stop-color="#FFD43D"/>
<stop offset="1" stop-color="#D37F00"/>
</linearGradient>
<linearGradient id="paint7_linear_305_21" x1="21.4652" y1="45.2087" x2="21.4652" y2="58" gradientUnits="userSpaceOnUse">
<stop stop-color="#FFD43D"/>
<stop offset="1" stop-color="#D37F00"/>
</linearGradient>
<linearGradient id="paint8_linear_305_21" x1="21.4652" y1="30.1392" x2="21.4652" y2="42.9305" gradientUnits="userSpaceOnUse">
<stop stop-color="#FFD43D"/>
<stop offset="1" stop-color="#D37F00"/>
</linearGradient>
<linearGradient id="paint9_linear_305_21" x1="6.39565" y1="45.2087" x2="6.39565" y2="58" gradientUnits="userSpaceOnUse">
<stop stop-color="#FFD43D"/>
<stop offset="1" stop-color="#D37F00"/>
</linearGradient>
</defs>
</svg>
