<svg width="58" height="58" viewBox="0 0 58 58" fill="none" xmlns="http://www.w3.org/2000/svg">
<g opacity="0.1">
<path d="M4.3348 12.7913L8.45643 12.7913C8.83307 12.7913 9.19549 12.6421 9.46552 12.372L12.3791 9.45845C12.642 9.19552 12.7913 8.8331 12.7913 8.45646L12.7913 4.33483C12.7913 3.95819 12.642 3.59577 12.372 3.33284L9.45842 0.41927C9.19549 0.149232 8.83307 0 8.45643 0L4.3348 0C3.95816 0 3.59574 0.149232 3.33281 0.41927L0.419239 3.33284C0.149201 3.59577 -3.05176e-05 3.95819 -3.05176e-05 4.33483L-3.05176e-05 8.45646C-3.05176e-05 8.8331 0.149201 9.19552 0.419239 9.45845L3.33281 12.372C3.59574 12.6421 3.95816 12.7913 4.3348 12.7913Z" fill="url(#paint0_linear_305_20)"/>
<path d="M4.3348 27.8609H8.45643C8.83307 27.8609 9.19549 27.7116 9.46552 27.4416L12.3791 24.528C12.642 24.2651 12.7913 23.9027 12.7913 23.526L12.7913 19.4044C12.7913 19.0278 12.642 18.6654 12.372 18.4024L9.45842 15.4888C9.19549 15.2188 8.83307 15.0696 8.45643 15.0696L4.3348 15.0696C3.95816 15.0696 3.59574 15.2188 3.33281 15.4888L0.419239 18.4024C0.149201 18.6654 -3.05176e-05 19.0278 -3.05176e-05 19.4044L-3.05176e-05 23.526C-3.05176e-05 23.9027 0.149201 24.2651 0.419239 24.528L3.33281 27.4416C3.59574 27.7116 3.95816 27.8609 4.3348 27.8609Z" fill="url(#paint1_linear_305_20)"/>
<path d="M4.3348 42.9304H8.45643C8.83307 42.9304 9.19549 42.7812 9.46552 42.5111L12.3791 39.5976C12.642 39.3346 12.7913 38.9722 12.7913 38.5956L12.7913 34.474C12.7913 34.0973 12.642 33.7349 12.372 33.472L9.45842 30.5584C9.19549 30.2884 8.83307 30.1391 8.45643 30.1391H4.3348C3.95816 30.1391 3.59574 30.2884 3.33281 30.5584L0.419239 33.472C0.149201 33.7349 -3.05176e-05 34.0973 -3.05176e-05 34.474L-3.05176e-05 38.5956C-3.05176e-05 38.9722 0.149201 39.3346 0.419239 39.5976L3.33281 42.5111C3.59574 42.7812 3.95816 42.9304 4.3348 42.9304Z" fill="url(#paint2_linear_305_20)"/>
<path d="M4.3348 58H8.45643C8.83307 58 9.19549 57.8508 9.46552 57.5807L12.3791 54.6672C12.642 54.4042 12.7913 54.0418 12.7913 53.6652L12.7913 49.5435C12.7913 49.1669 12.642 48.8045 12.372 48.5416L9.45842 45.628C9.19549 45.3579 8.83307 45.2087 8.45643 45.2087H4.3348C3.95816 45.2087 3.59574 45.3579 3.33281 45.628L0.419239 48.5416C0.149201 48.8045 -3.05176e-05 49.1669 -3.05176e-05 49.5435L-3.05176e-05 53.6652C-3.05176e-05 54.0418 0.149201 54.4042 0.419239 54.6672L3.33281 57.5807C3.59574 57.8508 3.95816 58 4.3348 58Z" fill="url(#paint3_linear_305_20)"/>
<path d="M19.4044 12.7913L23.526 12.7913C23.9026 12.7913 24.2651 12.6421 24.5351 12.372L27.4487 9.45845C27.7116 9.19552 27.8608 8.8331 27.8608 8.45646V4.33483C27.8608 3.95819 27.7116 3.59577 27.4416 3.33284L24.528 0.41927C24.2651 0.149232 23.9026 0 23.526 0L19.4044 0C19.0277 0 18.6653 0.149232 18.4024 0.41927L15.4888 3.33284C15.2188 3.59577 15.0695 3.95819 15.0695 4.33483L15.0695 8.45646C15.0695 8.8331 15.2188 9.19552 15.4888 9.45845L18.4024 12.372C18.6653 12.6421 19.0277 12.7913 19.4044 12.7913Z" fill="url(#paint4_linear_305_20)"/>
<path d="M19.4044 27.8609H23.526C23.9026 27.8609 24.2651 27.7116 24.5351 27.4416L27.4487 24.528C27.7116 24.2651 27.8608 23.9027 27.8608 23.526V19.4044C27.8608 19.0278 27.7116 18.6654 27.4416 18.4024L24.528 15.4888C24.2651 15.2188 23.9026 15.0696 23.526 15.0696L19.4044 15.0696C19.0277 15.0696 18.6653 15.2188 18.4024 15.4888L15.4888 18.4024C15.2188 18.6654 15.0695 19.0278 15.0695 19.4044L15.0695 23.526C15.0695 23.9027 15.2188 24.2651 15.4888 24.528L18.4024 27.4416C18.6653 27.7116 19.0277 27.8609 19.4044 27.8609Z" fill="url(#paint5_linear_305_20)"/>
<path d="M19.4044 42.9304H23.526C23.9026 42.9304 24.2651 42.7812 24.5351 42.5111L27.4487 39.5976C27.7116 39.3346 27.8608 38.9722 27.8608 38.5956V34.474C27.8608 34.0973 27.7116 33.7349 27.4416 33.472L24.528 30.5584C24.2651 30.2884 23.9026 30.1391 23.526 30.1391H19.4044C19.0277 30.1391 18.6653 30.2884 18.4024 30.5584L15.4888 33.472C15.2188 33.7349 15.0695 34.0973 15.0695 34.474L15.0695 38.5956C15.0695 38.9722 15.2188 39.3346 15.4888 39.5976L18.4024 42.5111C18.6653 42.7812 19.0277 42.9304 19.4044 42.9304Z" fill="url(#paint6_linear_305_20)"/>
<path d="M34.474 12.7913L38.5956 12.7913C38.9722 12.7913 39.3346 12.6421 39.6047 12.372L42.5183 9.45845C42.7812 9.19552 42.9304 8.8331 42.9304 8.45646V4.33483C42.9304 3.95819 42.7812 3.59577 42.5111 3.33284L39.5976 0.41927C39.3346 0.149232 38.9722 0 38.5956 0L34.474 0C34.0973 0 33.7349 0.149232 33.472 0.41927L30.5584 3.33284C30.2884 3.59577 30.1391 3.95819 30.1391 4.33483V8.45646C30.1391 8.8331 30.2884 9.19552 30.5584 9.45845L33.472 12.372C33.7349 12.6421 34.0973 12.7913 34.474 12.7913Z" fill="url(#paint7_linear_305_20)"/>
<path d="M34.474 27.8609H38.5956C38.9722 27.8609 39.3346 27.7116 39.6047 27.4416L42.5183 24.528C42.7812 24.2651 42.9304 23.9027 42.9304 23.526V19.4044C42.9304 19.0278 42.7812 18.6654 42.5111 18.4024L39.5976 15.4888C39.3346 15.2188 38.9722 15.0696 38.5956 15.0696L34.474 15.0696C34.0973 15.0696 33.7349 15.2188 33.472 15.4888L30.5584 18.4024C30.2884 18.6654 30.1391 19.0278 30.1391 19.4044V23.526C30.1391 23.9027 30.2884 24.2651 30.5584 24.528L33.472 27.4416C33.7349 27.7116 34.0973 27.8609 34.474 27.8609Z" fill="url(#paint8_linear_305_20)"/>
<path d="M49.5435 12.7913L53.6652 12.7913C54.0418 12.7913 54.4042 12.6421 54.6743 12.372L57.5878 9.45845C57.8508 9.19552 58 8.8331 58 8.45646V4.33483C58 3.95819 57.8508 3.59577 57.5807 3.33284L54.6672 0.41927C54.4042 0.149232 54.0418 0 53.6652 0L49.5435 0C49.1669 0 48.8045 0.149232 48.5416 0.41927L45.628 3.33284C45.3579 3.59577 45.2087 3.95819 45.2087 4.33483V8.45646C45.2087 8.8331 45.3579 9.19552 45.628 9.45845L48.5416 12.372C48.8045 12.6421 49.1669 12.7913 49.5435 12.7913Z" fill="url(#paint9_linear_305_20)"/>
</g>
<defs>
<linearGradient id="paint0_linear_305_20" x1="6.39561" y1="12.7913" x2="6.39561" y2="0" gradientUnits="userSpaceOnUse">
<stop stop-color="#FFD43D"/>
<stop offset="1" stop-color="#D37F00"/>
</linearGradient>
<linearGradient id="paint1_linear_305_20" x1="6.39561" y1="27.8609" x2="6.39561" y2="15.0696" gradientUnits="userSpaceOnUse">
<stop stop-color="#FFD43D"/>
<stop offset="1" stop-color="#D37F00"/>
</linearGradient>
<linearGradient id="paint2_linear_305_20" x1="6.39561" y1="42.9304" x2="6.39561" y2="30.1391" gradientUnits="userSpaceOnUse">
<stop stop-color="#FFD43D"/>
<stop offset="1" stop-color="#D37F00"/>
</linearGradient>
<linearGradient id="paint3_linear_305_20" x1="6.39561" y1="58" x2="6.39561" y2="45.2087" gradientUnits="userSpaceOnUse">
<stop stop-color="#FFD43D"/>
<stop offset="1" stop-color="#D37F00"/>
</linearGradient>
<linearGradient id="paint4_linear_305_20" x1="21.4652" y1="12.7913" x2="21.4652" y2="0" gradientUnits="userSpaceOnUse">
<stop stop-color="#FFD43D"/>
<stop offset="1" stop-color="#D37F00"/>
</linearGradient>
<linearGradient id="paint5_linear_305_20" x1="21.4652" y1="27.8609" x2="21.4652" y2="15.0696" gradientUnits="userSpaceOnUse">
<stop stop-color="#FFD43D"/>
<stop offset="1" stop-color="#D37F00"/>
</linearGradient>
<linearGradient id="paint6_linear_305_20" x1="21.4652" y1="42.9304" x2="21.4652" y2="30.1391" gradientUnits="userSpaceOnUse">
<stop stop-color="#FFD43D"/>
<stop offset="1" stop-color="#D37F00"/>
</linearGradient>
<linearGradient id="paint7_linear_305_20" x1="36.5348" y1="12.7913" x2="36.5348" y2="0" gradientUnits="userSpaceOnUse">
<stop stop-color="#FFD43D"/>
<stop offset="1" stop-color="#D37F00"/>
</linearGradient>
<linearGradient id="paint8_linear_305_20" x1="36.5348" y1="27.8609" x2="36.5348" y2="15.0696" gradientUnits="userSpaceOnUse">
<stop stop-color="#FFD43D"/>
<stop offset="1" stop-color="#D37F00"/>
</linearGradient>
<linearGradient id="paint9_linear_305_20" x1="51.6044" y1="12.7913" x2="51.6044" y2="0" gradientUnits="userSpaceOnUse">
<stop stop-color="#FFD43D"/>
<stop offset="1" stop-color="#D37F00"/>
</linearGradient>
</defs>
</svg>
