<svg width="196" height="80" viewBox="0 0 196 80" fill="none" xmlns="http://www.w3.org/2000/svg">
<path d="M0.959961 29.192V22.952H7.29596V26.984L9.74396 29.432H16.128L18.432 27.176V1.4H24.96V29.384L19.344 35H6.71996L0.959961 29.192Z" fill="#141414"/>
<path d="M30.4837 29.96V11.096H36.8197V27.992L38.4517 29.624H42.2917L46.9957 24.92V11.096H53.3317V35H47.4757V30.92L43.3477 35H35.5237L30.4837 29.96Z" fill="#141414"/>
<path d="M59.3231 0.727997H65.6591V35H59.3231V0.727997Z" fill="#141414"/>
<path d="M71.4056 6.104V3.032L73.6136 0.823998H76.9736L79.1816 3.032V6.104L76.9736 8.312H73.6136L71.4056 6.104ZM72.1256 11.096H78.4616V35H72.1256V11.096Z" fill="#141414"/>
<path d="M84.2437 30.008V16.088L89.1877 11.096H102.916L107.86 16.088V30.008L102.916 35H89.1877L84.2437 30.008ZM99.8437 29.72L101.524 28.04V18.056L99.8437 16.376H92.2597L90.5797 18.056V28.04L92.2597 29.72H99.8437Z" fill="#141414"/>
<path d="M68.0306 74.48V51.92L73.5506 46.4H89.9666L95.3906 51.824V56.96H88.8626V54.224L86.6066 51.968H77.0066L74.5586 54.416V71.984L77.0066 74.432H86.6066L88.8626 72.176V69.44H95.3906V74.576L89.9666 80H73.5506L68.0306 74.48Z" fill="#141414"/>
<path d="M99.2437 75.104V61.088L104.188 56.096H117.676L122.668 61.088V70.16H105.58V73.232L107.116 74.816H114.94L116.38 73.328V72.08H122.62V75.2L117.868 80H104.092L99.2437 75.104ZM116.332 65.744V62.96L114.7 61.28H107.212L105.58 62.96V65.744H116.332Z" fill="#141414"/>
<path d="M125.794 75.104L139.09 61.328V61.232H126.274V56.096H147.298V60.992L134.002 74.768V74.864H147.298V80H125.794V75.104Z" fill="#141414"/>
<path d="M150.426 75.584V70.112L154.842 65.696H166.986V62.672L165.498 61.184H158.298L156.858 62.672V64.016H150.618V61.28L155.754 56.096H168.09L173.226 61.28V80H167.514V76.592L163.962 80H154.842L150.426 75.584ZM163.53 75.104L166.986 71.792V70.208H157.962L156.666 71.504V73.904L157.866 75.104H163.53Z" fill="#141414"/>
<path d="M178.755 56.096H184.611V60.08L188.451 56.096H195.267V61.472H189.747L185.091 66.272V80H178.755V56.096Z" fill="#141414"/>
</svg>
